#!OML:ASF F:\VICON\USERDATA\INSTALL\rory3\rory3.ASF
:FULLY-SPECIFIED
:DEGREES
27
root 1.0259613726431387 18.007239992577865 -7.666673611219769 -3.7133263730365123 -4.981358277467617 1.7284564007317984
lfemur -3.9926032535854894 -3.7147950458095025 -26.160801959100528
ltibia 27.322232152844826
lfoot -10.262876557962084 2.0251523332211914
ltoes -10.951400765993544
rfemur -21.992049508738567 -0.5225671822338569 19.710893256807047
rtibia 71.04143020393543
rfoot -6.030355988024084 -6.102458926012345
rtoes 7.514963445899841
lowerback 10.143536673460893 0.75747470146985 -1.2479741742923556
upperback 0.629539131463605 1.0839890875721 0.24841168207896924
thorax -5.159715690580836 0.6714402242986797 0.8629050531684408
lowerneck -16.171672892298595 -2.8642380664095097 -1.6038055686747132
upperneck 21.942168222911477 -3.6298230730616954 0.3496833058319766
head 9.707343669073955 -1.7783978447896933 -0.07517290064783697
lclavicle -1.957622458931975e-15 8.914848551106468e-16
lhumerus -30.803143776258445 -0.156017923635408 82.94077859531751
lradius 19.37659463415293
lwrist 4.09553328038232
lhand -27.023598116831558 23.502000966684083
lfingers 7.12502
lthumb -0.5033321488286747 53.1548802691872
rclavicle -1.951256441892089e-15 9.08607898979325e-16
rhumerus -30.61314393381328 -24.0908435518491 -77.88327522201239
rradius 25.293372664346396
rwrist 5.9058279576013835
rhand -17.319506492847307 21.843331657112422
rfingers 7.12502
rthumb 9.096291182908306 -8.086691925813977
28
root 1.0022467882740953 17.98523681551303 -7.021476702936587 -3.3747256835034527 -3.8653830338132655 2.1343660216601363
lfemur -1.6521629234186879 -3.8509007131760575 -26.7739915042812
ltibia 26.23996885775201
lfoot -11.161561200837536 2.3116357575184496
ltoes -10.314970752061873
rfemur -25.666046164022582 -0.8404041331557632 19.518641462440545
rtibia 67.26037081107171
rfoot -8.75512475040125 -6.353365402036538
rtoes 4.257625470156403
lowerback 10.24225994367021 0.22734796095081883 -1.9542619730088877
upperback 0.6039857373076356 0.45019145766610136 0.33885872541787365
thorax -5.175878273224086 0.30635637634957824 1.4952269763012223
lowerneck -16.382979204047306 -2.8383312478949936 -1.718092603818426
upperneck 21.647851719560744 -3.543337221064353 0.3099486856676219
head 9.687375121157665 -1.7596281384066697 -0.05655224327723754
lclavicle -1.957607780447455e-15 8.91539769908021e-16
lhumerus -28.53511955603967 -2.17247460495713 83.26462328658384
lradius 20.433891859630997
lwrist 4.041565801561692
lhand -27.04864090168485 24.21817979011879
lfingers 7.12502
lthumb -0.5796823404922534 53.7730164131989
rclavicle -1.9512754217158782e-15 9.085901834319587e-16
rhumerus -31.23695620140949 -23.774738877120832 -77.71956790634039
rradius 26.1075126274307
rwrist 5.1862252976656205
rhand -17.140587676863422 21.43353777465825
rfingers 7.12502
rthumb 9.227655758289819 -8.582730166598944
29
root 0.9613925648118691 17.982714109400867 -6.518172942599902 -2.795642900431546 -2.8082396296666574 2.6022942874197654
lfemur 0.5858031370526771 -3.921127252816093 -27.388355239831174
ltibia 23.872806243931393
lfoot -12.12348258258205 2.7993042950838483
ltoes -8.642735100598596
rfemur -28.221789054922603 -0.958364775210419 19.2564618047357
rtibia 60.84426172076684
rfoot -9.202391516591172 -8.377304861087522
rtoes 1.3827760127371298
lowerback 10.178125691646862 -0.22516051053621078 -2.724446124361176
upperback 0.6019089854310135 -0.12327911077104603 0.42932352341890745
thorax -5.01090651390057 0.03126015268978655 1.908754732985602
lowerneck -16.534691115073986 -2.8569001300952337 -1.694887296932104
upperneck 21.66433599927477 -3.594529296647115 0.47122190435028943
head 9.75521053028786 -1.7846908059672955 -0.07090596261894325
lclavicle -1.9575766262741425e-15 8.914888925187057e-16
lhumerus -26.182614268955252 -3.2875667522089174 83.16462795121537
lradius 21.588479530024113
lwrist 4.580916429961455
lhand -27.232926997785256 24.12946688073779
lfingers 7.12502
lthumb -0.7080926350128545 53.780842598726394
rclavicle -1.951235810484065e-15 9.086235737073937e-16
rhumerus -31.716327819138627 -23.335516737893954 -77.56089534804353
rradius 26.27305081437478
rwrist 5.1522371846898025
rhand -17.00214710284161 22.137932520942314
rfingers 7.12502
rthumb 9.354800811609406 -7.595251153005606
30
root 0.9066833011109496 17.99972367123614 -6.003982206641423 -2.02147377695341 -1.6488465302298216 2.982938576640302
lfemur 3.480114662229303 -3.6625166856709868 -27.51243636158945
ltibia 20.187943338172115
lfoot -12.137198837692496 3.4860365042573216
ltoes -5.650759228660389
rfemur -29.523070137961156 -0.43310367371974046 18.914875914256033
rtibia 51.64723567725716
rfoot -8.217463922114842 -11.660836973926308
rtoes 1.9346660687870862
lowerback 9.903420973906323 -0.6069061425865517 -3.5867174706052545
upperback 0.4945669070202422 -0.6086085137671953 0.503886816051839
thorax -4.917781524577324 -0.2699278287279385 2.448543242448831
lowerneck -16.676622111929557 -2.8554416466310055 -1.6969041185479024
upperneck 21.54732026896403 -3.6265747737625467 0.4163775946135477
head 9.742133593201888 -1.7771484030470273 -0.07901116768129335
lclavicle -1.957566448767337e-15 8.914182642303423e-16
lhumerus -24.26176951515067 -4.387417959129051 83.11702197341936
lradius 22.815167817141592
lwrist 5.190514034833172
lhand -27.342074633683495 24.018007406143713
lfingers 7.12502
lthumb -0.8249120687325793 53.685644631821226
rclavicle -1.9512502186747617e-15 9.086120701875361e-16
rhumerus -32.09119257050595 -23.116575276873498 -77.38923178153554
rradius 25.63225247252879
rwrist 5.751785309413964
rhand -16.976140965334498 22.624604080840655
rfingers 7.12502
rthumb 9.276323877187295 -6.9196112499347935
